{"title":"Jeff.Who.Lives.At.Home.2011.LiMiTED.BRRip.XviD.AC3-ADTRG","uid":7340290,"size":1373753474,"categoryP":"video","categoryS":"movies","magnet":"?xt=urn:btih:20fac8c0762c6a6f546488376b3c1ed4f67f620f&amp;dn=Jeff.Who.Lives.At.Home.2011.LiMiTED.BRRip.XviD.AC3-ADTRG&amp;tr=udp%3A%2F%2Ftracker.openbittorrent.com%3A80&amp;tr=udp%3A%2F%2Fopen.demonii.com%3A1337&amp;tr=udp%3A%2F%2Ftracker.coppersurfer.tk%3A6969&amp;tr=udp%3A%2F%2Fexodus.desync.com%3A6969","seeders":0,"leechers":0,"uploader":"maximersk","files":3,"time":1339217536,"description":"Jeff.Who.Lives.At.Home.2011.LiMiTED.BRRip.XviD.AC3-ADTRG\n\n\n\n\nDispatched from his basement room on an errand for his mother, slacker Jeff might discover his destiny (finally) when he spends the day with his brother as he tracks his possibly adulterous wife. \n\nSource - Jeff.Who.Lives.At.Home.2011.LiMiTED.720p.BluRay.x264-SPARKS Thanks\n\nComplete name : Jeff.Who.Lives.At.Home.2011.LiMiTED.BRRip.XViD.AC3-ADTRG.avi\nFormat : AVI\nFormat/Info : Audio Video Interleave\nFile size : 1.27 GiB\nDuration : 1h 23mn\nOverall bit rate : 2 189 Kbps\nWriting library : VirtualDub build 34703/release\n\nVideo\nID : 0\nFormat : MPEG-4 Visual\nCodec ID : XVID\nBit rate : 1 795 Kbps\nWidth : 720 pixels\nHeight : 400 pixels\nDisplay aspect ratio : 16:9\nFrame rate : 23.976 fps\nStream size : 1.04 GiB (82%)\n\nAudio\nID : 1\nFormat : AC-3\nBit rate : 384 Kbps\nChannel(s) : 6 channels\nChannel positions : Front: L C R, Side: L R, LFE\nSampling rate : 48.0 KHz\nStream size : 228 MiB (18%)","torrent":{"xt":"urn:btih:20fac8c0762c6a6f546488376b3c1ed4f67f620f","amp;dn":"Jeff.Who.Lives.At.Home.2011.LiMiTED.BRRip.XviD.AC3-ADTRG","amp;tr":["udp%3A%2F%2Ftracker.openbittorrent.com%3A80","udp%3A%2F%2Fopen.demonii.com%3A1337","udp%3A%2F%2Ftracker.coppersurfer.tk%3A6969","udp%3A%2F%2Fexodus.desync.com%3A6969"],"infoHash":"20fac8c0762c6a6f546488376b3c1ed4f67f620f","infoHashBuffer":{"type":"Buffer","data":[32,250,200,192,118,44,106,111,84,100,136,55,107,60,30,212,246,127,98,15]},"announce":[],"urlList":[]}}